<?xml version="1.0" encoding="UTF-8" standalone="no"?>
<!-- Created with Inkscape (http://www.inkscape.org/) -->

<svg
   xmlns:dc="http://purl.org/dc/elements/1.1/"
   xmlns:cc="http://creativecommons.org/ns#"
   xmlns:rdf="http://www.w3.org/1999/02/22-rdf-syntax-ns#"
   xmlns:svg="http://www.w3.org/2000/svg"
   xmlns="http://www.w3.org/2000/svg"
   xmlns:sodipodi="http://sodipodi.sourceforge.net/DTD/sodipodi-0.dtd"
   xmlns:inkscape="http://www.inkscape.org/namespaces/inkscape"
   id="svg2"
   version="1.1"
   inkscape:version="0.91 r13725"
   xml:space="preserve"
   width="85.041748"
   height="22.255501"
   viewBox="0 0 85.041748 22.255501"
   sodipodi:docname="Hachette Book Group.svg"><metadata
     id="metadata8"><rdf:RDF><cc:Work
         rdf:about=""><dc:format>image/svg+xml</dc:format><dc:type
           rdf:resource="http://purl.org/dc/dcmitype/StillImage" /><dc:title></dc:title></cc:Work></rdf:RDF></metadata><defs
     id="defs6"><clipPath
       clipPathUnits="userSpaceOnUse"
       id="clipPath1096"><path
         d="m 923.727,248.882 105.461,0 0,50.118 -105.461,0 0,-50.118 z"
         id="path1098"
         inkscape:connector-curvature="0" /></clipPath><clipPath
       clipPathUnits="userSpaceOnUse"
       id="clipPath1108"><path
         d="m 924.25,345.172 120.635,0 0,26.965 -120.635,0 0,-26.965 z"
         id="path1110"
         inkscape:connector-curvature="0" /></clipPath><clipPath
       clipPathUnits="userSpaceOnUse"
       id="clipPath1148"><path
         d="m 933,197.458 73.904,0 0,22.821 -73.904,0 0,-22.821 z"
         id="path1150"
         inkscape:connector-curvature="0" /></clipPath></defs><sodipodi:namedview
     pagecolor="#ffffff"
     bordercolor="#666666"
     borderopacity="1"
     objecttolerance="10"
     gridtolerance="10"
     guidetolerance="10"
     inkscape:pageopacity="0"
     inkscape:pageshadow="2"
     inkscape:window-width="1920"
     inkscape:window-height="1017"
     id="namedview4"
     showgrid="false"
     fit-margin-top="0"
     fit-margin-left="0"
     fit-margin-right="0"
     fit-margin-bottom="0"
     inkscape:zoom="1.4833529"
     inkscape:cx="-3.9385237"
     inkscape:cy="1.3118126"
     inkscape:window-x="-8"
     inkscape:window-y="-8"
     inkscape:window-maximized="1"
     inkscape:current-layer="g10" /><g
     id="g10"
     inkscape:groupmode="layer"
     inkscape:label="A"
     transform="matrix(1.25,0,0,-1.25,-1166.2501,275.34875)"><g
       id="g1144"
       style="fill:#787f83;fill-opacity:1"><g
         id="g1146"
         clip-path="url(#clipPath1148)"
         style="fill:#787f83;fill-opacity:1"><g
           id="g1152"
           transform="translate(952.7393,205.9683)"
           style="fill:#787f83;fill-opacity:1"><path
             d="m 0,0 -0.9,0 0,-1.148 0.9,0 c 0.388,0 0.653,0.203 0.653,0.574 C 0.653,-0.203 0.388,0 0,0 m 0.056,-1.693 -0.956,0 0,-1.221 0.956,0 c 0.422,0 0.658,0.259 0.658,0.613 0,0.355 -0.236,0.608 -0.658,0.608 m 0.057,-1.766 -1.62,0 0,4.005 1.558,0 c 0.742,0 1.209,-0.422 1.209,-1.097 0,-0.433 -0.27,-0.743 -0.54,-0.85 0.309,-0.123 0.602,-0.422 0.602,-0.928 0,-0.737 -0.501,-1.13 -1.209,-1.13"
             style="fill:#787f83;fill-opacity:1;fill-rule:nonzero;stroke:none"
             id="path1154"
             inkscape:connector-curvature="0" /></g><g
           id="g1156"
           transform="translate(957.3125,202.9026)"
           style="fill:#787f83;fill-opacity:1"><path
             d="m 0,0 c 0.394,0.394 0.383,0.838 0.383,1.609 0,0.77 0.011,1.215 -0.383,1.608 -0.276,0.276 -0.63,0.428 -1.058,0.428 -0.427,0 -0.776,-0.152 -1.051,-0.428 -0.394,-0.393 -0.389,-0.838 -0.389,-1.608 0,-0.771 -0.005,-1.215 0.389,-1.609 0.275,-0.276 0.624,-0.428 1.051,-0.428 0.428,0 0.782,0.152 1.058,0.428 m -0.461,2.852 c 0.197,-0.214 0.236,-0.439 0.236,-1.243 0,-0.805 -0.039,-1.03 -0.236,-1.243 -0.141,-0.152 -0.36,-0.248 -0.597,-0.248 -0.236,0 -0.455,0.096 -0.596,0.248 -0.197,0.213 -0.236,0.438 -0.236,1.243 0,0.804 0.039,1.029 0.236,1.243 0.141,0.152 0.36,0.247 0.596,0.247 0.237,0 0.456,-0.095 0.597,-0.247"
             style="fill:#787f83;fill-opacity:1;fill-rule:nonzero;stroke:none"
             id="path1158"
             inkscape:connector-curvature="0" /></g><g
           id="g1160"
           transform="translate(960.9469,202.9026)"
           style="fill:#787f83;fill-opacity:1"><path
             d="m 0,0 c 0.394,0.394 0.383,0.838 0.383,1.609 0,0.77 0.011,1.215 -0.383,1.608 -0.276,0.276 -0.63,0.428 -1.058,0.428 -0.427,0 -0.776,-0.152 -1.051,-0.428 -0.394,-0.393 -0.389,-0.838 -0.389,-1.608 0,-0.771 -0.005,-1.215 0.389,-1.609 0.275,-0.276 0.624,-0.428 1.051,-0.428 0.428,0 0.782,0.152 1.058,0.428 m -0.461,2.852 c 0.197,-0.214 0.236,-0.439 0.236,-1.243 0,-0.805 -0.039,-1.03 -0.236,-1.243 -0.141,-0.152 -0.36,-0.248 -0.597,-0.248 -0.236,0 -0.455,0.096 -0.596,0.248 -0.197,0.213 -0.236,0.438 -0.236,1.243 0,0.804 0.039,1.029 0.236,1.243 0.141,0.152 0.36,0.247 0.596,0.247 0.237,0 0.456,-0.095 0.597,-0.247"
             style="fill:#787f83;fill-opacity:1;fill-rule:nonzero;stroke:none"
             id="path1162"
             inkscape:connector-curvature="0" /></g><g
           id="g1164"
           transform="translate(964.6376,202.5089)"
           style="fill:#787f83;fill-opacity:1"><path
             d="M 0,0 -1.125,1.974 -1.8,1.164 -1.8,0 l -0.607,0 0,4.005 0.607,0 0,-2.014 1.637,2.014 0.742,0 L -0.72,2.436 0.714,0 0,0 Z"
             style="fill:#787f83;fill-opacity:1;fill-rule:nonzero;stroke:none"
             id="path1166"
             inkscape:connector-curvature="0" /></g><g
           id="g1168"
           transform="translate(969.6558,202.9307)"
           style="fill:#787f83;fill-opacity:1"><path
             d="m 0,0 c -0.304,-0.321 -0.681,-0.456 -1.103,-0.456 -0.416,0 -0.776,0.152 -1.051,0.428 -0.394,0.394 -0.389,0.838 -0.389,1.609 0,0.77 -0.005,1.215 0.389,1.608 0.275,0.276 0.624,0.428 1.051,0.428 0.85,0 1.345,-0.557 1.457,-1.243 l -0.613,0 c -0.101,0.439 -0.394,0.697 -0.844,0.697 -0.236,0 -0.45,-0.095 -0.59,-0.247 C -1.89,2.61 -1.935,2.385 -1.935,1.581 c 0,-0.805 0.045,-1.035 0.242,-1.249 0.14,-0.152 0.354,-0.242 0.59,-0.242 0.265,0 0.495,0.101 0.653,0.281 0.146,0.169 0.202,0.372 0.202,0.63 l 0,0.225 -0.855,0 0,0.518 1.463,0 0,-0.613 C 0.36,0.613 0.264,0.281 0,0"
             style="fill:#787f83;fill-opacity:1;fill-rule:nonzero;stroke:none"
             id="path1170"
             inkscape:connector-curvature="0" /></g><g
           id="g1172"
           transform="translate(973.8299,202.5089)"
           style="fill:#787f83;fill-opacity:1"><path
             d="m 0,0 -0.922,1.772 c 0.45,0.124 0.798,0.489 0.798,1.063 0,0.681 -0.483,1.17 -1.243,1.17 l -1.552,0 0,-4.005 0.607,0 0,1.687 0.76,0 L -0.709,0 0,0 Z m -1.412,3.459 c 0.405,0 0.681,-0.236 0.681,-0.63 0,-0.393 -0.276,-0.624 -0.681,-0.624 l -0.9,0 0,1.254 0.9,0"
             style="fill:#787f83;fill-opacity:1;fill-rule:nonzero;stroke:none"
             id="path1174"
             inkscape:connector-curvature="0" /></g><g
           id="g1176"
           transform="translate(976.9458,202.9026)"
           style="fill:#787f83;fill-opacity:1"><path
             d="m 0,0 c 0.394,0.394 0.382,0.838 0.382,1.609 0,0.77 0.012,1.215 -0.382,1.608 -0.276,0.276 -0.63,0.428 -1.058,0.428 -0.427,0 -0.776,-0.152 -1.051,-0.428 -0.394,-0.393 -0.389,-0.838 -0.389,-1.608 0,-0.771 -0.005,-1.215 0.389,-1.609 0.275,-0.276 0.624,-0.428 1.051,-0.428 0.428,0 0.782,0.152 1.058,0.428 m -0.461,2.852 c 0.197,-0.214 0.236,-0.439 0.236,-1.243 0,-0.805 -0.039,-1.03 -0.236,-1.243 -0.141,-0.152 -0.36,-0.248 -0.597,-0.248 -0.236,0 -0.455,0.096 -0.596,0.248 -0.197,0.213 -0.236,0.438 -0.236,1.243 0,0.804 0.039,1.029 0.236,1.243 0.141,0.152 0.36,0.247 0.596,0.247 0.237,0 0.456,-0.095 0.597,-0.247"
             style="fill:#787f83;fill-opacity:1;fill-rule:nonzero;stroke:none"
             id="path1178"
             inkscape:connector-curvature="0" /></g><g
           id="g1180"
           transform="translate(979.6015,202.4751)"
           style="fill:#787f83;fill-opacity:1"><path
             d="m 0,0 c -0.816,0 -1.434,0.557 -1.434,1.384 l 0,2.655 0.607,0 0,-2.627 c 0,-0.534 0.326,-0.866 0.827,-0.866 0.501,0 0.833,0.332 0.833,0.866 l 0,2.627 0.607,0 0,-2.655 C 1.44,0.557 0.816,0 0,0"
             style="fill:#787f83;fill-opacity:1;fill-rule:nonzero;stroke:none"
             id="path1182"
             inkscape:connector-curvature="0" /></g><g
           id="g1184"
           transform="translate(983.5443,204.0839)"
           style="fill:#787f83;fill-opacity:1"><path
             d="M 0,0 C 0.782,0 1.283,0.517 1.283,1.215 1.283,1.912 0.782,2.43 0,2.43 l -1.519,0 0,-4.005 0.608,0 0,1.575 L 0,0 m -0.034,1.884 c 0.422,0 0.709,-0.247 0.709,-0.669 0,-0.422 -0.287,-0.664 -0.709,-0.664 l -0.877,0 0,1.333 0.877,0"
             style="fill:#787f83;fill-opacity:1;fill-rule:nonzero;stroke:none"
             id="path1186"
             inkscape:connector-curvature="0" /></g><g
           id="g1188"
           transform="translate(956.234,209.0393)"
           style="fill:#787f83;fill-opacity:1"><path
             d="m 0,0 0,4.766 c 0,1.407 -0.734,2.147 -1.982,2.147 -1.246,0 -2.02,-0.768 -2.02,-2.147 l 0,-4.766 -1,0 0,11.24 1,0 0,-4.413 c 0.564,0.648 1.314,0.972 2.199,0.972 C -0.055,7.799 1,6.683 1,4.935 L 1,0 0,0 Z"
             style="fill:#787f83;fill-opacity:1;fill-rule:nonzero;stroke:none"
             id="path1190"
             inkscape:connector-curvature="0" /></g><g
           id="g1192"
           transform="translate(963.5423,214.1927)"
           style="fill:#787f83;fill-opacity:1"><path
             d="m 0,0 c 0,1.166 -0.577,1.775 -2.052,1.775 -1.027,0 -1.549,-0.253 -2.015,-0.917 l -0.699,0.623 c 0.674,0.897 1.475,1.165 2.729,1.165 C 0.014,2.646 1,1.738 1,0.09 l 0,-5.243 -0.992,0 0,0.75 c -0.633,-0.632 -1.221,-0.845 -2.275,-0.845 -1.091,0 -1.73,0.201 -2.219,0.704 -0.363,0.379 -0.572,0.949 -0.572,1.546 0,1.381 0.98,2.227 2.679,2.227 l 1.374,0 0,-0.787 -1.245,0 c -1.222,0 -1.82,-0.496 -1.82,-1.433 0,-0.938 0.578,-1.394 1.864,-1.394 0.675,0 1.289,0.059 1.799,0.553 C -0.135,-3.571 0,-3.12 0,-2.444 L 0,0 Z"
             style="fill:#787f83;fill-opacity:1;fill-rule:nonzero;stroke:none"
             id="path1194"
             inkscape:connector-curvature="0" /></g><g
           id="g1196"
           transform="translate(969.4291,208.9446)"
           style="fill:#787f83;fill-opacity:1"><path
             d="m 0,0 c -2.003,0 -3.4,1.392 -3.4,3.949 0,2.556 1.397,3.945 3.4,3.945 1.057,0 1.735,-0.28 2.54,-1.157 L 1.855,6.095 C 1.242,6.779 0.763,7.008 0,7.008 -0.795,7.008 -1.46,6.684 -1.891,6.07 -2.262,5.544 -2.401,4.952 -2.401,3.949 -2.401,2.946 -2.262,2.35 -1.891,1.824 -1.46,1.21 -0.795,0.886 0,0.886 c 0.763,0 1.242,0.229 1.855,0.913 L 2.54,1.161 C 1.735,0.284 1.057,0 0,0"
             style="fill:#787f83;fill-opacity:1;fill-rule:nonzero;stroke:none"
             id="path1198"
             inkscape:connector-curvature="0" /></g><g
           id="g1200"
           transform="translate(977.8836,209.0393)"
           style="fill:#787f83;fill-opacity:1"><path
             d="m 0,0 0,4.766 c 0,1.407 -0.734,2.147 -1.981,2.147 -1.248,0 -2.022,-0.768 -2.022,-2.147 l 0,-4.766 -0.999,0 0,11.24 0.999,0 0,-4.413 c 0.565,0.648 1.315,0.972 2.2,0.972 C -0.055,7.799 1,6.683 1,4.935 L 1,0 0,0 Z"
             style="fill:#787f83;fill-opacity:1;fill-rule:nonzero;stroke:none"
             id="path1202"
             inkscape:connector-curvature="0" /></g><g
           id="g1204"
           transform="translate(982.2737,213.4223)"
           style="fill:#787f83;fill-opacity:1"><path
             d="m 0,0 0,-0.788 4.26,0 0,0.46 c 0,2.309 -1.175,3.744 -3.13,3.744 -1.945,0 -3.131,-1.464 -3.131,-3.945 0,-2.664 1.247,-3.949 3.324,-3.949 1.297,0 2.023,0.402 2.808,1.188 L 3.428,-2.699 C 2.8,-3.327 2.266,-3.591 1.366,-3.591 c -1.224,0 -1.961,0.626 -2.245,1.759 -0.099,0.379 -0.133,0.777 -0.133,1.307 0,0.897 0.037,1.358 0.263,1.864 0.361,0.811 1.09,1.214 1.879,1.214 0.841,0 1.565,-0.47 1.878,-1.214 C 3.188,0.896 3.236,0.66 3.264,0 L 0,0 Z"
             style="fill:#787f83;fill-opacity:1;fill-rule:nonzero;stroke:none"
             id="path1206"
             inkscape:connector-curvature="0" /></g><g
           id="g1208"
           transform="translate(989.903,209.0393)"
           style="fill:#787f83;fill-opacity:1"><path
             d="m 0,0 c -1.272,0 -1.919,0.894 -1.919,2.046 l 0,4.872 -1.011,0 0,0.752 1.011,0 0,2.431 1,0 0,-2.431 1.447,0 0,-0.752 -1.447,0 0,-4.865 c 0,-0.739 0.344,-1.182 1.099,-1.182 l 0.524,0 L 0.704,0 0,0 Z"
             style="fill:#787f83;fill-opacity:1;fill-rule:nonzero;stroke:none"
             id="path1210"
             inkscape:connector-curvature="0" /></g><g
           id="g1212"
           transform="translate(993.845,209.0393)"
           style="fill:#787f83;fill-opacity:1"><path
             d="m 0,0 c -1.272,0 -1.919,0.894 -1.919,2.046 l 0,4.872 -1.012,0 0,0.752 1.012,0 0,2.431 1,0 0,-2.431 1.447,0 0,-0.752 -1.447,0 0,-4.865 c 0,-0.739 0.344,-1.182 1.099,-1.182 l 0.524,0 L 0.704,0 0,0 Z"
             style="fill:#787f83;fill-opacity:1;fill-rule:nonzero;stroke:none"
             id="path1214"
             inkscape:connector-curvature="0" /></g><g
           id="g1216"
           transform="translate(996.7735,213.4223)"
           style="fill:#787f83;fill-opacity:1"><path
             d="m 0,0 0,-0.788 4.26,0 0,0.46 c 0,2.309 -1.175,3.744 -3.13,3.744 -1.945,0 -3.131,-1.464 -3.131,-3.945 0,-2.664 1.247,-3.949 3.324,-3.949 1.297,0 2.023,0.402 2.808,1.188 L 3.428,-2.699 C 2.8,-3.327 2.266,-3.591 1.366,-3.591 c -1.224,0 -1.961,0.626 -2.245,1.759 -0.099,0.379 -0.133,0.777 -0.133,1.307 0,0.897 0.037,1.358 0.262,1.864 0.362,0.811 1.091,1.214 1.88,1.214 0.841,0 1.565,-0.47 1.878,-1.214 C 3.188,0.896 3.236,0.66 3.264,0 L 0,0 Z"
             style="fill:#787f83;fill-opacity:1;fill-rule:nonzero;stroke:none"
             id="path1218"
             inkscape:connector-curvature="0" /></g><g
           id="g1220"
           transform="translate(947.2002,202.5089)"
           style="fill:#787f83;fill-opacity:1"><path
             d="m 0,0 0,14.2 -5.419,0 0,-1.029 4.39,0 0,-12.143 -3.361,0 0,4.391 -5.42,0 0,-1.029 4.391,0 0,-4.39 L 0,0 Z"
             style="fill:#787f83;fill-opacity:1;fill-rule:evenodd;stroke:none"
             id="path1222"
             inkscape:connector-curvature="0" /></g><g
           id="g1224"
           transform="translate(938.4191,212.3185)"
           style="fill:#787f83;fill-opacity:1"><path
             d="m 0,0 4.391,0 0,-1.029 -5.42,0 0,4.391 -3.362,0 0,-12.143 4.391,0 0,-1.029 -5.419,0 0,14.2 L 0,4.39 0,0 Z"
             style="fill:#787f83;fill-opacity:1;fill-rule:evenodd;stroke:none"
             id="path1226"
             inkscape:connector-curvature="0" /></g></g></g></g></svg>